ISO-10303-21;
HEADER;
/* Generated by software containing ST-Developer
 * from STEP Tools, Inc. (www.steptools.com) 
 */
/* OPTION: using custom schema-name function */

FILE_DESCRIPTION(
/* description */ (''),
/* implementation_level */ '2;1');

FILE_NAME(
/* name */ 'Free',
/* time_stamp */ '2026-07-13T15:36:22+01:00',
/* author */ (''),
/* organization */ (''),
/* preprocessor_version */ 'ST-DEVELOPER v19.2',
/* originating_system */ 'Rhino 8.17',
/* authorisation */ '');

FILE_SCHEMA (('AP242_MANAGED_MODEL_BASED_3D_ENGINEERING_MIM_LF { 1 0 10303 442 3 1 4 }'));
ENDSEC;

DATA;
#10=SHAPE_REPRESENTATION_RELATIONSHIP('','',#198,#22);
#11=COLOUR_RGB('',1.,0.,0.);
#12=FILL_AREA_STYLE_COLOUR('',#11);
#13=FILL_AREA_STYLE('',(#12));
#14=SURFACE_STYLE_FILL_AREA(#13);
#15=SURFACE_SIDE_STYLE('',(#14));
#16=SURFACE_STYLE_USAGE(.BOTH.,#15);
#17=MECHANICAL_DESIGN_GEOMETRIC_PRESENTATION_REPRESENTATION('',(#19),#197);
#18=PRESENTATION_STYLE_ASSIGNMENT((#16));
#19=STYLED_ITEM('',(#18),#21);
#20=PRESENTATION_LAYER_ASSIGNMENT('Circ','',(#21));
#21=SHELL_BASED_SURFACE_MODEL('shell_1',(#23));
#22=MANIFOLD_SURFACE_SHAPE_REPRESENTATION('shell_rep_0',(#21,#214),#197);
#23=OPEN_SHELL('',(#24));
#24=ADVANCED_FACE('',(#30,#25,#26,#27,#28,#29),#179,.T.);
#25=FACE_BOUND('',#32,.T.);
#26=FACE_BOUND('',#33,.T.);
#27=FACE_BOUND('',#34,.T.);
#28=FACE_BOUND('',#35,.T.);
#29=FACE_BOUND('',#36,.T.);
#30=FACE_OUTER_BOUND('',#31,.T.);
#31=EDGE_LOOP('',(#37,#38,#39,#40,#41,#42,#43,#44,#45,#46));
#32=EDGE_LOOP('',(#47));
#33=EDGE_LOOP('',(#48));
#34=EDGE_LOOP('',(#49));
#35=EDGE_LOOP('',(#50));
#36=EDGE_LOOP('',(#51,#52,#53));
#37=ORIENTED_EDGE('',*,*,#131,.T.);
#38=ORIENTED_EDGE('',*,*,#132,.T.);
#39=ORIENTED_EDGE('',*,*,#133,.T.);
#40=ORIENTED_EDGE('',*,*,#134,.T.);
#41=ORIENTED_EDGE('',*,*,#135,.T.);
#42=ORIENTED_EDGE('',*,*,#136,.T.);
#43=ORIENTED_EDGE('',*,*,#137,.T.);
#44=ORIENTED_EDGE('',*,*,#138,.T.);
#45=ORIENTED_EDGE('',*,*,#139,.T.);
#46=ORIENTED_EDGE('',*,*,#140,.T.);
#47=ORIENTED_EDGE('',*,*,#141,.T.);
#48=ORIENTED_EDGE('',*,*,#142,.T.);
#49=ORIENTED_EDGE('',*,*,#143,.T.);
#50=ORIENTED_EDGE('',*,*,#144,.T.);
#51=ORIENTED_EDGE('',*,*,#145,.T.);
#52=ORIENTED_EDGE('',*,*,#146,.T.);
#53=ORIENTED_EDGE('',*,*,#147,.T.);
#54=(
BOUNDED_CURVE()
B_SPLINE_CURVE(2,(#323,#324,#325),.UNSPECIFIED.,.F.,.F.)
B_SPLINE_CURVE_WITH_KNOTS((3,3),(-68.3524070045798,-45.),.UNSPECIFIED.)
CURVE()
GEOMETRIC_REPRESENTATION_ITEM()
RATIONAL_B_SPLINE_CURVE((1.,1.,1.))
REPRESENTATION_ITEM('')
);
#55=(
BOUNDED_CURVE()
B_SPLINE_CURVE(2,(#326,#327,#328),.UNSPECIFIED.,.F.,.F.)
B_SPLINE_CURVE_WITH_KNOTS((3,3),(-68.3524070045798,-45.),.UNSPECIFIED.)
CURVE()
GEOMETRIC_REPRESENTATION_ITEM()
RATIONAL_B_SPLINE_CURVE((1.,1.,1.))
REPRESENTATION_ITEM('')
);
#56=(
BOUNDED_CURVE()
B_SPLINE_CURVE(2,(#329,#330,#331),.UNSPECIFIED.,.F.,.F.)
B_SPLINE_CURVE_WITH_KNOTS((3,3),(-45.,-35.),.UNSPECIFIED.)
CURVE()
GEOMETRIC_REPRESENTATION_ITEM()
RATIONAL_B_SPLINE_CURVE((1.,1.,1.))
REPRESENTATION_ITEM('')
);
#57=(
BOUNDED_CURVE()
B_SPLINE_CURVE(2,(#332,#333,#334),.UNSPECIFIED.,.F.,.F.)
B_SPLINE_CURVE_WITH_KNOTS((3,3),(-45.,-35.),.UNSPECIFIED.)
CURVE()
GEOMETRIC_REPRESENTATION_ITEM()
RATIONAL_B_SPLINE_CURVE((1.,1.,1.))
REPRESENTATION_ITEM('')
);
#58=(
BOUNDED_CURVE()
B_SPLINE_CURVE(2,(#335,#336,#337,#338,#339,#340,#341,#342,#343,#344,#345,
#346,#347,#348,#349),.UNSPECIFIED.,.F.,.F.)
B_SPLINE_CURVE_WITH_KNOTS((3,2,2,2,2,2,2,3),(-35.,-11.6475929954222,-4.70778704639702,
70.7405296277403,146.188846301878,221.637162976015,297.085479650152,304.025285599166),
 .UNSPECIFIED.)
CURVE()
GEOMETRIC_REPRESENTATION_ITEM()
RATIONAL_B_SPLINE_CURVE((1.,1.,1.,0.768706114784841,1.,0.73867797098499,
1.,0.73867797098499,1.,0.73867797098499,1.,0.73867797098499,1.,0.768706114785543,
1.))
REPRESENTATION_ITEM('')
);
#59=(
BOUNDED_CURVE()
B_SPLINE_CURVE(2,(#350,#351,#352,#353,#354,#355,#356,#357,#358,#359,#360,
#361,#362,#363,#364),.UNSPECIFIED.,.F.,.F.)
B_SPLINE_CURVE_WITH_KNOTS((3,2,2,2,2,2,2,3),(-35.,-11.6475929954222,-4.70778704639702,
70.7405296277403,146.188846301878,221.637162976015,297.085479650152,304.025285599166),
 .UNSPECIFIED.)
CURVE()
GEOMETRIC_REPRESENTATION_ITEM()
RATIONAL_B_SPLINE_CURVE((1.,1.,1.,0.768706114784841,1.,0.73867797098499,
1.,0.73867797098499,1.,0.73867797098499,1.,0.73867797098499,1.,0.768706114785543,
1.))
REPRESENTATION_ITEM('')
);
#60=TRIMMED_CURVE($,#66,(#282),(#283),.T.,.CARTESIAN.);
#61=TRIMMED_CURVE($,#67,(#285),(#286),.T.,.CARTESIAN.);
#62=TRIMMED_CURVE($,#68,(#288),(#289),.T.,.CARTESIAN.);
#63=TRIMMED_CURVE($,#69,(#291),(#292),.T.,.CARTESIAN.);
#64=TRIMMED_CURVE($,#70,(#294),(#295),.T.,.CARTESIAN.);
#65=TRIMMED_CURVE($,#71,(#297),(#298),.T.,.CARTESIAN.);
#66=CIRCLE('',#200,5.00000000000005);
#67=CIRCLE('',#201,5.00000000000005);
#68=CIRCLE('',#202,54.9999999999981);
#69=CIRCLE('',#203,54.9999999999981);
#70=CIRCLE('',#204,5.00000000000029);
#71=CIRCLE('',#205,5.0000000000003);
#72=CIRCLE('',#206,2.25);
#73=CIRCLE('',#207,2.25);
#74=CIRCLE('',#208,2.25);
#75=CIRCLE('',#209,2.25);
#76=CIRCLE('',#210,2.25);
#77=CIRCLE('',#211,2.25);
#78=CIRCLE('',#212,2.25);
#79=CIRCLE('',#213,2.25);
#80=PCURVE('',#179,#97);
#81=PCURVE('',#179,#98);
#82=PCURVE('',#179,#99);
#83=PCURVE('',#179,#100);
#84=PCURVE('',#179,#101);
#85=PCURVE('',#179,#102);
#86=PCURVE('',#179,#103);
#87=PCURVE('',#179,#104);
#88=PCURVE('',#179,#105);
#89=PCURVE('',#179,#106);
#90=PCURVE('',#179,#107);
#91=PCURVE('',#179,#108);
#92=PCURVE('',#179,#109);
#93=PCURVE('',#179,#110);
#94=PCURVE('',#179,#111);
#95=PCURVE('',#179,#112);
#96=PCURVE('',#179,#113);
#97=DEFINITIONAL_REPRESENTATION('',(#149),#366);
#98=DEFINITIONAL_REPRESENTATION('',(#151),#366);
#99=DEFINITIONAL_REPRESENTATION('',(#153),#366);
#100=DEFINITIONAL_REPRESENTATION('',(#61),#366);
#101=DEFINITIONAL_REPRESENTATION('',(#63),#366);
#102=DEFINITIONAL_REPRESENTATION('',(#65),#366);
#103=DEFINITIONAL_REPRESENTATION('',(#155),#366);
#104=DEFINITIONAL_REPRESENTATION('',(#157),#366);
#105=DEFINITIONAL_REPRESENTATION('',(#159),#366);
#106=DEFINITIONAL_REPRESENTATION('',(#161),#366);
#107=DEFINITIONAL_REPRESENTATION('',(#73),#366);
#108=DEFINITIONAL_REPRESENTATION('',(#75),#366);
#109=DEFINITIONAL_REPRESENTATION('',(#77),#366);
#110=DEFINITIONAL_REPRESENTATION('',(#79),#366);
#111=DEFINITIONAL_REPRESENTATION('',(#55),#366);
#112=DEFINITIONAL_REPRESENTATION('',(#57),#366);
#113=DEFINITIONAL_REPRESENTATION('',(#59),#366);
#114=SURFACE_CURVE('',#148,(#80),.PCURVE_S1.);
#115=SURFACE_CURVE('',#150,(#81),.PCURVE_S1.);
#116=SURFACE_CURVE('',#152,(#82),.PCURVE_S1.);
#117=SURFACE_CURVE('',#60,(#83),.PCURVE_S1.);
#118=SURFACE_CURVE('',#62,(#84),.PCURVE_S1.);
#119=SURFACE_CURVE('',#64,(#85),.PCURVE_S1.);
#120=SURFACE_CURVE('',#154,(#86),.PCURVE_S1.);
#121=SURFACE_CURVE('',#156,(#87),.PCURVE_S1.);
#122=SURFACE_CURVE('',#158,(#88),.PCURVE_S1.);
#123=SURFACE_CURVE('',#160,(#89),.PCURVE_S1.);
#124=SURFACE_CURVE('',#72,(#90),.PCURVE_S1.);
#125=SURFACE_CURVE('',#74,(#91),.PCURVE_S1.);
#126=SURFACE_CURVE('',#76,(#92),.PCURVE_S1.);
#127=SURFACE_CURVE('',#78,(#93),.PCURVE_S1.);
#128=SURFACE_CURVE('',#54,(#94),.PCURVE_S1.);
#129=SURFACE_CURVE('',#56,(#95),.PCURVE_S1.);
#130=SURFACE_CURVE('',#58,(#96),.PCURVE_S1.);
#131=EDGE_CURVE('',#162,#163,#114,.T.);
#132=EDGE_CURVE('',#163,#164,#115,.T.);
#133=EDGE_CURVE('',#164,#165,#116,.T.);
#134=EDGE_CURVE('',#165,#166,#117,.T.);
#135=EDGE_CURVE('',#166,#167,#118,.T.);
#136=EDGE_CURVE('',#167,#168,#119,.T.);
#137=EDGE_CURVE('',#168,#169,#120,.T.);
#138=EDGE_CURVE('',#169,#170,#121,.T.);
#139=EDGE_CURVE('',#170,#171,#122,.T.);
#140=EDGE_CURVE('',#171,#162,#123,.T.);
#141=EDGE_CURVE('',#172,#172,#124,.T.);
#142=EDGE_CURVE('',#173,#173,#125,.T.);
#143=EDGE_CURVE('',#174,#174,#126,.T.);
#144=EDGE_CURVE('',#175,#175,#127,.T.);
#145=EDGE_CURVE('',#176,#178,#128,.T.);
#146=EDGE_CURVE('',#178,#177,#129,.T.);
#147=EDGE_CURVE('',#177,#176,#130,.T.);
#148=B_SPLINE_CURVE_WITH_KNOTS('',1,(#269,#270),.UNSPECIFIED.,.F.,.F.,(2,
2),(101.,137.),.UNSPECIFIED.);
#149=B_SPLINE_CURVE_WITH_KNOTS('',1,(#271,#272),.UNSPECIFIED.,.F.,.F.,(2,
2),(101.,137.),.UNSPECIFIED.);
#150=B_SPLINE_CURVE_WITH_KNOTS('',1,(#273,#274),.UNSPECIFIED.,.F.,.F.,(2,
2),(137.,152.),.UNSPECIFIED.);
#151=B_SPLINE_CURVE_WITH_KNOTS('',1,(#275,#276),.UNSPECIFIED.,.F.,.F.,(2,
2),(137.,152.),.UNSPECIFIED.);
#152=B_SPLINE_CURVE_WITH_KNOTS('',1,(#277,#278),.UNSPECIFIED.,.F.,.F.,(2,
2),(152.,250.905249806893),.UNSPECIFIED.);
#153=B_SPLINE_CURVE_WITH_KNOTS('',1,(#279,#280),.UNSPECIFIED.,.F.,.F.,(2,
2),(152.,250.905249806893),.UNSPECIFIED.);
#154=B_SPLINE_CURVE_WITH_KNOTS('',1,(#299,#300),.UNSPECIFIED.,.F.,.F.,(2,
2),(552.977650368192,651.882900175083),.UNSPECIFIED.);
#155=B_SPLINE_CURVE_WITH_KNOTS('',1,(#301,#302),.UNSPECIFIED.,.F.,.F.,(2,
2),(552.977650368192,651.882900175083),.UNSPECIFIED.);
#156=B_SPLINE_CURVE_WITH_KNOTS('',1,(#303,#304),.UNSPECIFIED.,.F.,.F.,(2,
2),(651.882900175083,666.882900175083),.UNSPECIFIED.);
#157=B_SPLINE_CURVE_WITH_KNOTS('',1,(#305,#306),.UNSPECIFIED.,.F.,.F.,(2,
2),(651.882900175083,666.882900175083),.UNSPECIFIED.);
#158=B_SPLINE_CURVE_WITH_KNOTS('',1,(#307,#308),.UNSPECIFIED.,.F.,.F.,(2,
2),(666.882900175083,702.882900175083),.UNSPECIFIED.);
#159=B_SPLINE_CURVE_WITH_KNOTS('',1,(#309,#310),.UNSPECIFIED.,.F.,.F.,(2,
2),(666.882900175083,702.882900175083),.UNSPECIFIED.);
#160=B_SPLINE_CURVE_WITH_KNOTS('',1,(#311,#312),.UNSPECIFIED.,.F.,.F.,(2,
2),(702.882900175083,722.882900175083),.UNSPECIFIED.);
#161=B_SPLINE_CURVE_WITH_KNOTS('',1,(#313,#314),.UNSPECIFIED.,.F.,.F.,(2,
2),(702.882900175083,722.882900175083),.UNSPECIFIED.);
#162=VERTEX_POINT('',#252);
#163=VERTEX_POINT('',#253);
#164=VERTEX_POINT('',#254);
#165=VERTEX_POINT('',#255);
#166=VERTEX_POINT('',#256);
#167=VERTEX_POINT('',#257);
#168=VERTEX_POINT('',#258);
#169=VERTEX_POINT('',#259);
#170=VERTEX_POINT('',#260);
#171=VERTEX_POINT('',#261);
#172=VERTEX_POINT('',#262);
#173=VERTEX_POINT('',#263);
#174=VERTEX_POINT('',#264);
#175=VERTEX_POINT('',#265);
#176=VERTEX_POINT('',#266);
#177=VERTEX_POINT('',#267);
#178=VERTEX_POINT('',#268);
#179=B_SPLINE_SURFACE_WITH_KNOTS('',1,1,((#248,#249),(#250,#251)),
 .UNSPECIFIED.,.F.,.F.,.F.,(2,2),(2,2),(-82.1306397326899,41.6306397326897),
(-222.479999999997,30.48),.UNSPECIFIED.);
#180=SHAPE_DEFINITION_REPRESENTATION(#181,#198);
#181=PRODUCT_DEFINITION_SHAPE($,$,#183);
#182=PRODUCT_DEFINITION_CONTEXT('3D Mechanical Parts',#187,'design');
#183=PRODUCT_DEFINITION('A','First version',#184,#182);
#184=PRODUCT_DEFINITION_FORMATION_WITH_SPECIFIED_SOURCE('A',
'First version',#189,.MADE.);
#185=PRODUCT_RELATED_PRODUCT_CATEGORY('tool','tool',(#189));
#186=APPLICATION_PROTOCOL_DEFINITION('Draft International Standard',
'automotive_design',1999,#187);
#187=APPLICATION_CONTEXT(
'data for automotive mechanical design processes');
#188=PRODUCT_CONTEXT('3D Mechanical Parts',#187,'mechanical');
#189=PRODUCT('Document','Document','',(#188));
#190=(
LENGTH_UNIT()
NAMED_UNIT(*)
SI_UNIT(.MILLI.,.METRE.)
);
#191=(
NAMED_UNIT(*)
PLANE_ANGLE_UNIT()
SI_UNIT($,.RADIAN.)
);
#192=DIMENSIONAL_EXPONENTS(0.,0.,0.,0.,0.,0.,0.);
#193=PLANE_ANGLE_MEASURE_WITH_UNIT(PLANE_ANGLE_MEASURE(0.01745329252),#191);
#194=(
CONVERSION_BASED_UNIT('DEGREES',#193)
NAMED_UNIT(#192)
PLANE_ANGLE_UNIT()
);
#195=(
NAMED_UNIT(*)
SI_UNIT($,.STERADIAN.)
SOLID_ANGLE_UNIT()
);
#196=UNCERTAINTY_MEASURE_WITH_UNIT(LENGTH_MEASURE(0.001),#190,
'DISTANCE_ACCURACY_VALUE',
'Maximum model space distance between geometric entities at asserted c
onnectivities');
#197=(
GEOMETRIC_REPRESENTATION_CONTEXT(3)
GLOBAL_UNCERTAINTY_ASSIGNED_CONTEXT((#196))
GLOBAL_UNIT_ASSIGNED_CONTEXT((#195,#194,#190))
REPRESENTATION_CONTEXT('ID1','3D')
);
#198=SHAPE_REPRESENTATION('Document',(#199,#214),#197);
#199=AXIS2_PLACEMENT_3D($,#247,#215,#216);
#200=AXIS2_PLACEMENT_3D($,#281,#217,#218);
#201=AXIS2_PLACEMENT_3D($,#284,#219,#220);
#202=AXIS2_PLACEMENT_3D($,#287,#221,#222);
#203=AXIS2_PLACEMENT_3D($,#290,#223,#224);
#204=AXIS2_PLACEMENT_3D($,#293,#225,#226);
#205=AXIS2_PLACEMENT_3D($,#296,#227,#228);
#206=AXIS2_PLACEMENT_3D($,#315,#229,#230);
#207=AXIS2_PLACEMENT_3D($,#316,#231,#232);
#208=AXIS2_PLACEMENT_3D($,#317,#233,#234);
#209=AXIS2_PLACEMENT_3D($,#318,#235,#236);
#210=AXIS2_PLACEMENT_3D($,#319,#237,#238);
#211=AXIS2_PLACEMENT_3D($,#320,#239,#240);
#212=AXIS2_PLACEMENT_3D($,#321,#241,#242);
#213=AXIS2_PLACEMENT_3D($,#322,#243,#244);
#214=AXIS2_PLACEMENT_3D($,#365,#245,#246);
#215=DIRECTION('',(0.,0.,1.));
#216=DIRECTION('',(1.,0.,0.));
#217=DIRECTION('',(0.,0.,-1.));
#218=DIRECTION('',(1.,0.,0.));
#219=DIRECTION('',(0.,0.,-1.));
#220=DIRECTION('',(1.,2.84217094304037E-15,0.));
#221=DIRECTION('',(0.,0.,1.));
#222=DIRECTION('',(-0.250000000000022,0.968245836551848,0.));
#223=DIRECTION('',(0.,0.,1.));
#224=DIRECTION('',(-0.250000000000021,0.968245836551849,0.));
#225=DIRECTION('',(0.,0.,-1.));
#226=DIRECTION('',(-0.250000000000038,-0.968245836551845,0.));
#227=DIRECTION('',(0.,0.,-1.));
#228=DIRECTION('',(-0.25000000000004,-0.968245836551844,0.));
#229=DIRECTION('',(0.,0.,-1.));
#230=DIRECTION('',(1.,0.,0.));
#231=DIRECTION('',(0.,0.,-1.));
#232=DIRECTION('',(1.,0.,0.));
#233=DIRECTION('',(0.,0.,-1.));
#234=DIRECTION('',(1.,-1.57898385724467E-15,0.));
#235=DIRECTION('',(0.,0.,-1.));
#236=DIRECTION('',(1.,0.,0.));
#237=DIRECTION('',(0.,0.,-1.));
#238=DIRECTION('',(1.,0.,0.));
#239=DIRECTION('',(0.,0.,-1.));
#240=DIRECTION('',(1.,0.,0.));
#241=DIRECTION('',(0.,0.,-1.));
#242=DIRECTION('',(1.,1.57898385724467E-15,0.));
#243=DIRECTION('',(0.,0.,-1.));
#244=DIRECTION('',(1.,0.,0.));
#245=DIRECTION('',(0.,0.,1.));
#246=DIRECTION('',(1.,0.,0.));
#247=CARTESIAN_POINT('',(0.,0.,0.));
#248=CARTESIAN_POINT('',(-61.8806397326899,-232.479999999997,0.));
#249=CARTESIAN_POINT('',(-61.8806397326899,20.48,0.));
#250=CARTESIAN_POINT('',(61.8806397326897,-232.479999999997,0.));
#251=CARTESIAN_POINT('',(61.8806397326897,20.48,0.));
#252=CARTESIAN_POINT('',(-25.,18.,0.));
#253=CARTESIAN_POINT('',(-25.,-18.,0.));
#254=CARTESIAN_POINT('',(-10.,-18.,0.));
#255=CARTESIAN_POINT('',(-10.0000000000005,-116.905249806889,0.));
#256=CARTESIAN_POINT('',(-13.7500000000005,-121.746478989648,0.));
#257=CARTESIAN_POINT('',(13.75,-121.746478989648,0.));
#258=CARTESIAN_POINT('',(10.,-116.905249806889,0.));
#259=CARTESIAN_POINT('',(10.,-18.,0.));
#260=CARTESIAN_POINT('',(25.,-18.,0.));
#261=CARTESIAN_POINT('',(25.,18.,0.));
#262=CARTESIAN_POINT('',(20.25,-10.,0.));
#263=CARTESIAN_POINT('',(-15.75,-10.,0.));
#264=CARTESIAN_POINT('',(-15.75,10.,0.));
#265=CARTESIAN_POINT('',(20.25,10.,0.));
#266=CARTESIAN_POINT('',(-6.00000000000443,-120.916730868039,0.));
#267=CARTESIAN_POINT('',(6.,14.,0.));
#268=CARTESIAN_POINT('',(-5.99999999999997,14.,0.));
#269=CARTESIAN_POINT('',(-25.,18.,0.));
#270=CARTESIAN_POINT('',(-25.,-18.,0.));
#271=CARTESIAN_POINT('',(-45.25,28.));
#272=CARTESIAN_POINT('',(-45.25,-8.));
#273=CARTESIAN_POINT('',(-25.,-18.,0.));
#274=CARTESIAN_POINT('',(-10.,-18.,0.));
#275=CARTESIAN_POINT('',(-45.25,-8.));
#276=CARTESIAN_POINT('',(-30.25,-8.));
#277=CARTESIAN_POINT('',(-10.,-18.,0.));
#278=CARTESIAN_POINT('',(-10.0000000000005,-116.905249806889,0.));
#279=CARTESIAN_POINT('',(-30.25,-8.));
#280=CARTESIAN_POINT('',(-30.2500000000005,-106.905249806889));
#281=CARTESIAN_POINT('',(-15.0000000000005,-116.905249806889,0.));
#282=CARTESIAN_POINT('',(-10.0000000000005,-116.905249806889,0.));
#283=CARTESIAN_POINT('',(-13.7500000000005,-121.746478989648,0.));
#284=CARTESIAN_POINT('',(-35.2500000000005,-106.905249806889,0.));
#285=CARTESIAN_POINT('',(-30.2500000000005,-106.905249806889,0.));
#286=CARTESIAN_POINT('',(-34.0000000000005,-111.746478989648,0.));
#287=CARTESIAN_POINT('',(2.25561438189087E-13,-174.999999999998,0.));
#288=CARTESIAN_POINT('',(-13.7500000000005,-121.746478989648,0.));
#289=CARTESIAN_POINT('',(13.7500000000001,-121.746478989648,0.));
#290=CARTESIAN_POINT('',(-20.2499999999998,-164.999999999998,0.));
#291=CARTESIAN_POINT('',(-34.0000000000005,-111.746478989648,0.));
#292=CARTESIAN_POINT('',(-6.49999999999995,-111.746478989648,0.));
#293=CARTESIAN_POINT('',(15.0000000000003,-116.905249806889,0.));
#294=CARTESIAN_POINT('',(13.75,-121.746478989648,0.));
#295=CARTESIAN_POINT('',(10.,-116.905249806889,0.));
#296=CARTESIAN_POINT('',(-5.24999999999969,-106.905249806889,0.));
#297=CARTESIAN_POINT('',(-6.49999999999996,-111.746478989648,0.));
#298=CARTESIAN_POINT('',(-10.25,-106.905249806889,0.));
#299=CARTESIAN_POINT('',(10.,-116.905249806889,0.));
#300=CARTESIAN_POINT('',(10.,-18.,0.));
#301=CARTESIAN_POINT('',(-10.25,-106.905249806889));
#302=CARTESIAN_POINT('',(-10.25,-8.));
#303=CARTESIAN_POINT('',(10.,-18.,0.));
#304=CARTESIAN_POINT('',(25.,-18.,0.));
#305=CARTESIAN_POINT('',(-10.25,-8.));
#306=CARTESIAN_POINT('',(4.75,-8.));
#307=CARTESIAN_POINT('',(25.,-18.,0.));
#308=CARTESIAN_POINT('',(25.,18.,0.));
#309=CARTESIAN_POINT('',(4.75,-8.));
#310=CARTESIAN_POINT('',(4.75,28.));
#311=CARTESIAN_POINT('',(25.,18.,0.));
#312=CARTESIAN_POINT('',(-25.,18.,0.));
#313=CARTESIAN_POINT('',(4.75,28.));
#314=CARTESIAN_POINT('',(-45.25,28.));
#315=CARTESIAN_POINT('',(18.,-10.,0.));
#316=CARTESIAN_POINT('',(-2.25,0.,0.));
#317=CARTESIAN_POINT('',(-18.,-10.,0.));
#318=CARTESIAN_POINT('',(-38.25,0.,0.));
#319=CARTESIAN_POINT('',(-18.,10.,0.));
#320=CARTESIAN_POINT('',(-38.25,20.,0.));
#321=CARTESIAN_POINT('',(18.,10.,0.));
#322=CARTESIAN_POINT('',(-2.25,20.,0.));
#323=CARTESIAN_POINT('',(-6.00000000000443,-120.916730868039,0.));
#324=CARTESIAN_POINT('',(-6.0000000000022,-53.4583654340196,0.));
#325=CARTESIAN_POINT('',(-5.99999999999997,14.,0.));
#326=CARTESIAN_POINT('',(-26.2500000000044,-110.916730868039));
#327=CARTESIAN_POINT('',(-26.2500000000022,-43.4583654340196));
#328=CARTESIAN_POINT('',(-26.25,24.));
#329=CARTESIAN_POINT('',(-5.99999999999997,14.,0.));
#330=CARTESIAN_POINT('',(1.64313007644523E-14,14.,0.));
#331=CARTESIAN_POINT('',(6.,14.,0.));
#332=CARTESIAN_POINT('',(-26.25,24.));
#333=CARTESIAN_POINT('',(-20.25,24.));
#334=CARTESIAN_POINT('',(-14.25,24.));
#335=CARTESIAN_POINT('',(6.,14.,0.));
#336=CARTESIAN_POINT('',(6.,-53.4583654340082,0.));
#337=CARTESIAN_POINT('',(6.,-120.916730868016,0.));
#338=CARTESIAN_POINT('',(6.00000000000002,-124.244932045378,0.));
#339=CARTESIAN_POINT('',(9.27272727273922,-124.850059532161,0.));
#340=CARTESIAN_POINT('',(55.0355559245836,-133.311609543016,0.));
#341=CARTESIAN_POINT('',(50.7870404925863,-179.655804772067,0.));
#342=CARTESIAN_POINT('',(46.5385250605891,-226.000000001118,0.));
#343=CARTESIAN_POINT('',(1.1604583960434E-10,-226.00000000117,0.));
#344=CARTESIAN_POINT('',(-46.538525060357,-226.000000001222,0.));
#345=CARTESIAN_POINT('',(-50.7870404924586,-179.655804772181,0.));
#346=CARTESIAN_POINT('',(-55.0355559245602,-133.31160954314,0.));
#347=CARTESIAN_POINT('',(-9.27272727273487,-124.850059532182,0.));
#348=CARTESIAN_POINT('',(-6.00000000000448,-124.244932045393,0.));
#349=CARTESIAN_POINT('',(-6.00000000000445,-120.916730868039,0.));
#350=CARTESIAN_POINT('',(-14.25,24.));
#351=CARTESIAN_POINT('',(-14.25,-43.4583654340082));
#352=CARTESIAN_POINT('',(-14.25,-110.916730868016));
#353=CARTESIAN_POINT('',(-14.25,-114.244932045378));
#354=CARTESIAN_POINT('',(-10.9772727272608,-114.850059532161));
#355=CARTESIAN_POINT('',(34.7855559245836,-123.311609543016));
#356=CARTESIAN_POINT('',(30.5370404925863,-169.655804772067));
#357=CARTESIAN_POINT('',(26.288525060589,-216.000000001118));
#358=CARTESIAN_POINT('',(-20.249999999884,-216.00000000117));
#359=CARTESIAN_POINT('',(-66.788525060357,-216.000000001222));
#360=CARTESIAN_POINT('',(-71.0370404924586,-169.655804772181));
#361=CARTESIAN_POINT('',(-75.2855559245602,-123.31160954314));
#362=CARTESIAN_POINT('',(-29.5227272727349,-114.850059532182));
#363=CARTESIAN_POINT('',(-26.2500000000045,-114.244932045393));
#364=CARTESIAN_POINT('',(-26.2500000000044,-110.916730868039));
#365=CARTESIAN_POINT('',(0.,0.,0.));
#366=(
GEOMETRIC_REPRESENTATION_CONTEXT(2)
PARAMETRIC_REPRESENTATION_CONTEXT()
REPRESENTATION_CONTEXT('pspace','')
);
ENDSEC;
END-ISO-10303-21;
