ISO-10303-21;
HEADER;
/* Generated by software containing ST-Developer
 * from STEP Tools, Inc. (www.steptools.com) 
 */
/* OPTION: using custom schema-name function */

FILE_DESCRIPTION(
/* description */ (''),
/* implementation_level */ '2;1');

FILE_NAME(
/* name */ 'Inflate',
/* time_stamp */ '2026-07-13T15:39:11+01:00',
/* author */ (''),
/* organization */ (''),
/* preprocessor_version */ 'ST-DEVELOPER v19.2',
/* originating_system */ 'Rhino 8.17',
/* authorisation */ '');

FILE_SCHEMA (('AP242_MANAGED_MODEL_BASED_3D_ENGINEERING_MIM_LF { 1 0 10303 442 3 1 4 }'));
ENDSEC;

DATA;
#10=SHAPE_REPRESENTATION_RELATIONSHIP('','',#100,#22);
#11=COLOUR_RGB('',1.,0.,0.);
#12=FILL_AREA_STYLE_COLOUR('',#11);
#13=FILL_AREA_STYLE('',(#12));
#14=SURFACE_STYLE_FILL_AREA(#13);
#15=SURFACE_SIDE_STYLE('',(#14));
#16=SURFACE_STYLE_USAGE(.BOTH.,#15);
#17=MECHANICAL_DESIGN_GEOMETRIC_PRESENTATION_REPRESENTATION('',(#19),#99);
#18=PRESENTATION_STYLE_ASSIGNMENT((#16));
#19=STYLED_ITEM('',(#18),#21);
#20=PRESENTATION_LAYER_ASSIGNMENT('Circ','',(#21));
#21=SHELL_BASED_SURFACE_MODEL('shell_1',(#23));
#22=MANIFOLD_SURFACE_SHAPE_REPRESENTATION('shell_rep_0',(#21,#108),#99);
#23=OPEN_SHELL('',(#24));
#24=ADVANCED_FACE('',(#25),#81,.T.);
#25=FACE_OUTER_BOUND('',#26,.T.);
#26=EDGE_LOOP('',(#27,#28,#29,#30,#31,#32));
#27=ORIENTED_EDGE('',*,*,#63,.T.);
#28=ORIENTED_EDGE('',*,*,#64,.T.);
#29=ORIENTED_EDGE('',*,*,#65,.T.);
#30=ORIENTED_EDGE('',*,*,#66,.T.);
#31=ORIENTED_EDGE('',*,*,#67,.T.);
#32=ORIENTED_EDGE('',*,*,#68,.T.);
#33=TRIMMED_CURVE($,#39,(#149),(#150),.T.,.CARTESIAN.);
#34=TRIMMED_CURVE($,#40,(#152),(#153),.T.,.CARTESIAN.);
#35=TRIMMED_CURVE($,#41,(#155),(#156),.T.,.CARTESIAN.);
#36=TRIMMED_CURVE($,#42,(#158),(#159),.T.,.CARTESIAN.);
#37=TRIMMED_CURVE($,#43,(#161),(#162),.T.,.CARTESIAN.);
#38=TRIMMED_CURVE($,#44,(#164),(#165),.T.,.CARTESIAN.);
#39=CIRCLE('',#102,6.00000000000007);
#40=CIRCLE('',#103,6.00000000000003);
#41=CIRCLE('',#104,49.0000000005862);
#42=CIRCLE('',#105,49.0000000005863);
#43=CIRCLE('',#106,5.99999999999975);
#44=CIRCLE('',#107,5.99999999999974);
#45=PCURVE('',#81,#51);
#46=PCURVE('',#81,#52);
#47=PCURVE('',#81,#53);
#48=PCURVE('',#81,#54);
#49=PCURVE('',#81,#55);
#50=PCURVE('',#81,#56);
#51=DEFINITIONAL_REPRESENTATION('',(#70),#167);
#52=DEFINITIONAL_REPRESENTATION('',(#72),#167);
#53=DEFINITIONAL_REPRESENTATION('',(#74),#167);
#54=DEFINITIONAL_REPRESENTATION('',(#34),#167);
#55=DEFINITIONAL_REPRESENTATION('',(#36),#167);
#56=DEFINITIONAL_REPRESENTATION('',(#38),#167);
#57=SURFACE_CURVE('',#69,(#45),.PCURVE_S1.);
#58=SURFACE_CURVE('',#71,(#46),.PCURVE_S1.);
#59=SURFACE_CURVE('',#73,(#47),.PCURVE_S1.);
#60=SURFACE_CURVE('',#33,(#48),.PCURVE_S1.);
#61=SURFACE_CURVE('',#35,(#49),.PCURVE_S1.);
#62=SURFACE_CURVE('',#37,(#50),.PCURVE_S1.);
#63=EDGE_CURVE('',#75,#76,#57,.T.);
#64=EDGE_CURVE('',#76,#77,#58,.T.);
#65=EDGE_CURVE('',#77,#78,#59,.T.);
#66=EDGE_CURVE('',#78,#79,#60,.T.);
#67=EDGE_CURVE('',#79,#80,#61,.T.);
#68=EDGE_CURVE('',#80,#75,#62,.T.);
#69=B_SPLINE_CURVE_WITH_KNOTS('',1,(#136,#137),.UNSPECIFIED.,.F.,.F.,(2,
2),(0.,132.916730868039),.UNSPECIFIED.);
#70=B_SPLINE_CURVE_WITH_KNOTS('',1,(#138,#139),.UNSPECIFIED.,.F.,.F.,(2,
2),(0.,132.916730868039),.UNSPECIFIED.);
#71=B_SPLINE_CURVE_WITH_KNOTS('',1,(#140,#141),.UNSPECIFIED.,.F.,.F.,(2,
2),(0.,8.00000000000003),.UNSPECIFIED.);
#72=B_SPLINE_CURVE_WITH_KNOTS('',1,(#142,#143),.UNSPECIFIED.,.F.,.F.,(2,
2),(0.,8.00000000000003),.UNSPECIFIED.);
#73=B_SPLINE_CURVE_WITH_KNOTS('',1,(#144,#145),.UNSPECIFIED.,.F.,.F.,(2,
2),(0.,132.916730868016),.UNSPECIFIED.);
#74=B_SPLINE_CURVE_WITH_KNOTS('',1,(#146,#147),.UNSPECIFIED.,.F.,.F.,(2,
2),(0.,132.916730868016),.UNSPECIFIED.);
#75=VERTEX_POINT('',#130);
#76=VERTEX_POINT('',#131);
#77=VERTEX_POINT('',#132);
#78=VERTEX_POINT('',#133);
#79=VERTEX_POINT('',#134);
#80=VERTEX_POINT('',#135);
#81=B_SPLINE_SURFACE_WITH_KNOTS('',1,1,((#126,#127),(#128,#129)),
 .UNSPECIFIED.,.F.,.F.,.F.,(2,2),(2,2),(-49.9348448060877,57.9348448061236),
(-135.276730868051,105.443269133193),.UNSPECIFIED.);
#82=SHAPE_DEFINITION_REPRESENTATION(#83,#100);
#83=PRODUCT_DEFINITION_SHAPE($,$,#85);
#84=PRODUCT_DEFINITION_CONTEXT('3D Mechanical Parts',#89,'design');
#85=PRODUCT_DEFINITION('A','First version',#86,#84);
#86=PRODUCT_DEFINITION_FORMATION_WITH_SPECIFIED_SOURCE('A',
'First version',#91,.MADE.);
#87=PRODUCT_RELATED_PRODUCT_CATEGORY('tool','tool',(#91));
#88=APPLICATION_PROTOCOL_DEFINITION('Draft International Standard',
'automotive_design',1999,#89);
#89=APPLICATION_CONTEXT(
'data for automotive mechanical design processes');
#90=PRODUCT_CONTEXT('3D Mechanical Parts',#89,'mechanical');
#91=PRODUCT('Document','Document','',(#90));
#92=(
LENGTH_UNIT()
NAMED_UNIT(*)
SI_UNIT(.MILLI.,.METRE.)
);
#93=(
NAMED_UNIT(*)
PLANE_ANGLE_UNIT()
SI_UNIT($,.RADIAN.)
);
#94=DIMENSIONAL_EXPONENTS(0.,0.,0.,0.,0.,0.,0.);
#95=PLANE_ANGLE_MEASURE_WITH_UNIT(PLANE_ANGLE_MEASURE(0.01745329252),#93);
#96=(
CONVERSION_BASED_UNIT('DEGREES',#95)
NAMED_UNIT(#94)
PLANE_ANGLE_UNIT()
);
#97=(
NAMED_UNIT(*)
SI_UNIT($,.STERADIAN.)
SOLID_ANGLE_UNIT()
);
#98=UNCERTAINTY_MEASURE_WITH_UNIT(LENGTH_MEASURE(0.001),#92,
'DISTANCE_ACCURACY_VALUE',
'Maximum model space distance between geometric entities at asserted c
onnectivities');
#99=(
GEOMETRIC_REPRESENTATION_CONTEXT(3)
GLOBAL_UNCERTAINTY_ASSIGNED_CONTEXT((#98))
GLOBAL_UNIT_ASSIGNED_CONTEXT((#97,#96,#92))
REPRESENTATION_CONTEXT('ID1','3D')
);
#100=SHAPE_REPRESENTATION('Document',(#101,#108),#99);
#101=AXIS2_PLACEMENT_3D($,#125,#109,#110);
#102=AXIS2_PLACEMENT_3D($,#148,#111,#112);
#103=AXIS2_PLACEMENT_3D($,#151,#113,#114);
#104=AXIS2_PLACEMENT_3D($,#154,#115,#116);
#105=AXIS2_PLACEMENT_3D($,#157,#117,#118);
#106=AXIS2_PLACEMENT_3D($,#160,#119,#120);
#107=AXIS2_PLACEMENT_3D($,#163,#121,#122);
#108=AXIS2_PLACEMENT_3D($,#166,#123,#124);
#109=DIRECTION('',(0.,0.,1.));
#110=DIRECTION('',(1.,0.,0.));
#111=DIRECTION('',(0.,0.,1.));
#112=DIRECTION('',(-1.,-9.47390314346789E-15,0.));
#113=DIRECTION('',(0.,0.,-1.));
#114=DIRECTION('',(-1.,1.33226762955018E-15,0.));
#115=DIRECTION('',(0.,0.,-1.));
#116=DIRECTION('',(0.181818181815172,0.98333216603619,0.));
#117=DIRECTION('',(0.,0.,1.));
#118=DIRECTION('',(0.181818181815176,-0.983332166036189,0.));
#119=DIRECTION('',(0.,0.,1.));
#120=DIRECTION('',(0.18181818181735,-0.983332166035787,0.));
#121=DIRECTION('',(0.,0.,-1.));
#122=DIRECTION('',(0.181818181817347,0.983332166035788,0.));
#123=DIRECTION('',(0.,0.,1.));
#124=DIRECTION('',(1.,0.,0.));
#125=CARTESIAN_POINT('',(0.,0.,0.));
#126=CARTESIAN_POINT('',(-53.9348448060921,14.3600000000122,0.));
#127=CARTESIAN_POINT('',(-53.9348448060921,-226.360000001232,0.));
#128=CARTESIAN_POINT('',(53.9348448061191,14.3600000000122,0.));
#129=CARTESIAN_POINT('',(53.9348448061191,-226.360000001232,0.));
#130=CARTESIAN_POINT('',(-4.00000000000443,-120.916730868039,0.));
#131=CARTESIAN_POINT('',(-4.00000000000003,12.,0.));
#132=CARTESIAN_POINT('',(4.,12.,0.));
#133=CARTESIAN_POINT('',(4.,-120.916730868016,0.));
#134=CARTESIAN_POINT('',(8.90909090910887,-126.816723864234,0.));
#135=CARTESIAN_POINT('',(-8.90909090910014,-126.816723864254,0.));
#136=CARTESIAN_POINT('',(-4.00000000000443,-120.916730868039,0.));
#137=CARTESIAN_POINT('',(-4.00000000000003,12.,0.));
#138=CARTESIAN_POINT('',(0.,0.));
#139=CARTESIAN_POINT('',(4.40003589119442E-12,-132.916730868039));
#140=CARTESIAN_POINT('',(-4.00000000000003,12.,0.));
#141=CARTESIAN_POINT('',(4.,12.,0.));
#142=CARTESIAN_POINT('',(4.40003589119442E-12,-132.916730868039));
#143=CARTESIAN_POINT('',(8.00000000000443,-132.916730868039));
#144=CARTESIAN_POINT('',(4.,12.,0.));
#145=CARTESIAN_POINT('',(4.,-120.916730868016,0.));
#146=CARTESIAN_POINT('',(8.00000000000443,-132.916730868039));
#147=CARTESIAN_POINT('',(8.00000000000443,-2.27800001084688E-11));
#148=CARTESIAN_POINT('',(10.0000000000001,-120.916730868016,0.));
#149=CARTESIAN_POINT('',(4.,-120.916730868016,0.));
#150=CARTESIAN_POINT('',(8.90909090910887,-126.816723864234,0.));
#151=CARTESIAN_POINT('',(14.0000000000045,-2.27879937142461E-11,0.));
#152=CARTESIAN_POINT('',(8.00000000000443,-2.27800001084688E-11,0.));
#153=CARTESIAN_POINT('',(12.9090909091133,5.89999299619436,0.));
#154=CARTESIAN_POINT('',(5.88419984612428E-11,-175.000000000583,0.));
#155=CARTESIAN_POINT('',(8.90909090910887,-126.816723864234,0.));
#156=CARTESIAN_POINT('',(-8.90909090910012,-126.816723864254,0.));
#157=CARTESIAN_POINT('',(4.00000000006306,54.0832691325441,0.));
#158=CARTESIAN_POINT('',(12.9090909091133,5.89999299619436,0.));
#159=CARTESIAN_POINT('',(-4.90909090909571,5.89999299621442,0.));
#160=CARTESIAN_POINT('',(-10.0000000000042,-120.916730868039,0.));
#161=CARTESIAN_POINT('',(-8.90909090910014,-126.816723864254,0.));
#162=CARTESIAN_POINT('',(-4.00000000000444,-120.916730868039,0.));
#163=CARTESIAN_POINT('',(-5.99999999999974,-6.12843109593086E-14,0.));
#164=CARTESIAN_POINT('',(-4.9090909090957,5.89999299621441,0.));
#165=CARTESIAN_POINT('',(0.,-4.44089209850063E-16,0.));
#166=CARTESIAN_POINT('',(0.,0.,0.));
#167=(
GEOMETRIC_REPRESENTATION_CONTEXT(2)
PARAMETRIC_REPRESENTATION_CONTEXT()
REPRESENTATION_CONTEXT('pspace','')
);
ENDSEC;
END-ISO-10303-21;
