ISO-10303-21;
HEADER;
/* Generated by software containing ST-Developer
 * from STEP Tools, Inc. (www.steptools.com) 
 */
/* OPTION: using custom schema-name function */

FILE_DESCRIPTION(
/* description */ (''),
/* implementation_level */ '2;1');

FILE_NAME(
/* name */ 'Weld',
/* time_stamp */ '2026-07-13T15:39:22+01:00',
/* author */ (''),
/* organization */ (''),
/* preprocessor_version */ 'ST-DEVELOPER v19.2',
/* originating_system */ 'Rhino 8.17',
/* authorisation */ '');

FILE_SCHEMA (('AP242_MANAGED_MODEL_BASED_3D_ENGINEERING_MIM_LF { 1 0 10303 442 3 1 4 }'));
ENDSEC;

DATA;
#10=SHAPE_REPRESENTATION_RELATIONSHIP('','',#126,#22);
#11=COLOUR_RGB('',1.,0.,0.);
#12=FILL_AREA_STYLE_COLOUR('',#11);
#13=FILL_AREA_STYLE('',(#12));
#14=SURFACE_STYLE_FILL_AREA(#13);
#15=SURFACE_SIDE_STYLE('',(#14));
#16=SURFACE_STYLE_USAGE(.BOTH.,#15);
#17=MECHANICAL_DESIGN_GEOMETRIC_PRESENTATION_REPRESENTATION('',(#19),#125);
#18=PRESENTATION_STYLE_ASSIGNMENT((#16));
#19=STYLED_ITEM('',(#18),#21);
#20=PRESENTATION_LAYER_ASSIGNMENT('Circ','',(#21));
#21=SHELL_BASED_SURFACE_MODEL('shell_1',(#23));
#22=MANIFOLD_SURFACE_SHAPE_REPRESENTATION('shell_rep_0',(#21,#134),#125);
#23=OPEN_SHELL('',(#24));
#24=ADVANCED_FACE('',(#26,#25),#107,.T.);
#25=FACE_BOUND('',#28,.T.);
#26=FACE_OUTER_BOUND('',#27,.T.);
#27=EDGE_LOOP('',(#29,#30,#31,#32,#33,#34));
#28=EDGE_LOOP('',(#35,#36,#37));
#29=ORIENTED_EDGE('',*,*,#83,.T.);
#30=ORIENTED_EDGE('',*,*,#84,.T.);
#31=ORIENTED_EDGE('',*,*,#85,.T.);
#32=ORIENTED_EDGE('',*,*,#86,.T.);
#33=ORIENTED_EDGE('',*,*,#87,.T.);
#34=ORIENTED_EDGE('',*,*,#88,.T.);
#35=ORIENTED_EDGE('',*,*,#89,.T.);
#36=ORIENTED_EDGE('',*,*,#90,.T.);
#37=ORIENTED_EDGE('',*,*,#91,.T.);
#38=(
BOUNDED_CURVE()
B_SPLINE_CURVE(2,(#195,#196,#197,#198,#199,#200,#201,#202,#203,#204,#205,
#206,#207,#208,#209),.UNSPECIFIED.,.F.,.F.)
B_SPLINE_CURVE_WITH_KNOTS((3,2,2,2,2,2,2,3),(-289.841495421121,-282.901689472107,
-210.412130314569,-137.922571157031,-65.4330119994926,7.05654715804565,
13.9963531070708,37.1743800558243),.UNSPECIFIED.)
CURVE()
GEOMETRIC_REPRESENTATION_ITEM()
RATIONAL_B_SPLINE_CURVE((1.,0.768706114785539,1.,0.73867797098499,1.,0.73867797098499,
1.,0.73867797098499,1.,0.73867797098499,1.,0.768706114784836,1.,1.,1.))
REPRESENTATION_ITEM('')
);
#39=(
BOUNDED_CURVE()
B_SPLINE_CURVE(2,(#210,#211,#212,#213,#214,#215,#216,#217,#218,#219,#220,
#221,#222,#223,#224),.UNSPECIFIED.,.F.,.F.)
B_SPLINE_CURVE_WITH_KNOTS((3,2,2,2,2,2,2,3),(-289.841495421121,-282.901689472107,
-210.412130314569,-137.922571157031,-65.4330119994926,7.05654715804565,
13.9963531070708,37.1743800558243),.UNSPECIFIED.)
CURVE()
GEOMETRIC_REPRESENTATION_ITEM()
RATIONAL_B_SPLINE_CURVE((1.,0.768706114785539,1.,0.73867797098499,1.,0.73867797098499,
1.,0.73867797098499,1.,0.73867797098499,1.,0.768706114784836,1.,1.,1.))
REPRESENTATION_ITEM('')
);
#40=(
BOUNDED_CURVE()
B_SPLINE_CURVE(2,(#225,#226,#227),.UNSPECIFIED.,.F.,.F.)
B_SPLINE_CURVE_WITH_KNOTS((3,3),(37.1743800558243,45.1743800558243),
 .UNSPECIFIED.)
CURVE()
GEOMETRIC_REPRESENTATION_ITEM()
RATIONAL_B_SPLINE_CURVE((1.,1.,1.))
REPRESENTATION_ITEM('')
);
#41=(
BOUNDED_CURVE()
B_SPLINE_CURVE(2,(#228,#229,#230),.UNSPECIFIED.,.F.,.F.)
B_SPLINE_CURVE_WITH_KNOTS((3,3),(37.1743800558243,45.1743800558243),
 .UNSPECIFIED.)
CURVE()
GEOMETRIC_REPRESENTATION_ITEM()
RATIONAL_B_SPLINE_CURVE((1.,1.,1.))
REPRESENTATION_ITEM('')
);
#42=(
BOUNDED_CURVE()
B_SPLINE_CURVE(2,(#231,#232,#233),.UNSPECIFIED.,.F.,.F.)
B_SPLINE_CURVE_WITH_KNOTS((3,3),(45.1743800558243,68.3524070045798),
 .UNSPECIFIED.)
CURVE()
GEOMETRIC_REPRESENTATION_ITEM()
RATIONAL_B_SPLINE_CURVE((1.,1.,1.))
REPRESENTATION_ITEM('')
);
#43=(
BOUNDED_CURVE()
B_SPLINE_CURVE(2,(#234,#235,#236),.UNSPECIFIED.,.F.,.F.)
B_SPLINE_CURVE_WITH_KNOTS((3,3),(45.1743800558243,68.3524070045798),
 .UNSPECIFIED.)
CURVE()
GEOMETRIC_REPRESENTATION_ITEM()
RATIONAL_B_SPLINE_CURVE((1.,1.,1.))
REPRESENTATION_ITEM('')
);
#44=TRIMMED_CURVE($,#50,(#178),(#179),.T.,.CARTESIAN.);
#45=TRIMMED_CURVE($,#51,(#181),(#182),.T.,.CARTESIAN.);
#46=TRIMMED_CURVE($,#52,(#184),(#185),.T.,.CARTESIAN.);
#47=TRIMMED_CURVE($,#53,(#187),(#188),.T.,.CARTESIAN.);
#48=TRIMMED_CURVE($,#54,(#190),(#191),.T.,.CARTESIAN.);
#49=TRIMMED_CURVE($,#55,(#193),(#194),.T.,.CARTESIAN.);
#50=CIRCLE('',#128,4.00000000000001);
#51=CIRCLE('',#129,4.00000000000003);
#52=CIRCLE('',#130,51.0000000005864);
#53=CIRCLE('',#131,51.0000000005864);
#54=CIRCLE('',#132,3.9999999999998);
#55=CIRCLE('',#133,3.99999999999984);
#56=PCURVE('',#107,#65);
#57=PCURVE('',#107,#66);
#58=PCURVE('',#107,#67);
#59=PCURVE('',#107,#68);
#60=PCURVE('',#107,#69);
#61=PCURVE('',#107,#70);
#62=PCURVE('',#107,#71);
#63=PCURVE('',#107,#72);
#64=PCURVE('',#107,#73);
#65=DEFINITIONAL_REPRESENTATION('',(#93),#238);
#66=DEFINITIONAL_REPRESENTATION('',(#95),#238);
#67=DEFINITIONAL_REPRESENTATION('',(#97),#238);
#68=DEFINITIONAL_REPRESENTATION('',(#45),#238);
#69=DEFINITIONAL_REPRESENTATION('',(#47),#238);
#70=DEFINITIONAL_REPRESENTATION('',(#49),#238);
#71=DEFINITIONAL_REPRESENTATION('',(#39),#238);
#72=DEFINITIONAL_REPRESENTATION('',(#41),#238);
#73=DEFINITIONAL_REPRESENTATION('',(#43),#238);
#74=SURFACE_CURVE('',#92,(#56),.PCURVE_S1.);
#75=SURFACE_CURVE('',#94,(#57),.PCURVE_S1.);
#76=SURFACE_CURVE('',#96,(#58),.PCURVE_S1.);
#77=SURFACE_CURVE('',#44,(#59),.PCURVE_S1.);
#78=SURFACE_CURVE('',#46,(#60),.PCURVE_S1.);
#79=SURFACE_CURVE('',#48,(#61),.PCURVE_S1.);
#80=SURFACE_CURVE('',#38,(#62),.PCURVE_S1.);
#81=SURFACE_CURVE('',#40,(#63),.PCURVE_S1.);
#82=SURFACE_CURVE('',#42,(#64),.PCURVE_S1.);
#83=EDGE_CURVE('',#98,#99,#74,.T.);
#84=EDGE_CURVE('',#99,#100,#75,.T.);
#85=EDGE_CURVE('',#100,#101,#76,.T.);
#86=EDGE_CURVE('',#101,#102,#77,.T.);
#87=EDGE_CURVE('',#102,#103,#78,.T.);
#88=EDGE_CURVE('',#103,#98,#79,.T.);
#89=EDGE_CURVE('',#104,#105,#80,.T.);
#90=EDGE_CURVE('',#105,#106,#81,.T.);
#91=EDGE_CURVE('',#106,#104,#82,.T.);
#92=B_SPLINE_CURVE_WITH_KNOTS('',1,(#165,#166),.UNSPECIFIED.,.F.,.F.,(2,
2),(0.,134.916730868039),.UNSPECIFIED.);
#93=B_SPLINE_CURVE_WITH_KNOTS('',1,(#167,#168),.UNSPECIFIED.,.F.,.F.,(2,
2),(0.,134.916730868039),.UNSPECIFIED.);
#94=B_SPLINE_CURVE_WITH_KNOTS('',1,(#169,#170),.UNSPECIFIED.,.F.,.F.,(2,
2),(0.,12.),.UNSPECIFIED.);
#95=B_SPLINE_CURVE_WITH_KNOTS('',1,(#171,#172),.UNSPECIFIED.,.F.,.F.,(2,
2),(0.,12.),.UNSPECIFIED.);
#96=B_SPLINE_CURVE_WITH_KNOTS('',1,(#173,#174),.UNSPECIFIED.,.F.,.F.,(2,
2),(0.,134.916730868016),.UNSPECIFIED.);
#97=B_SPLINE_CURVE_WITH_KNOTS('',1,(#175,#176),.UNSPECIFIED.,.F.,.F.,(2,
2),(0.,134.916730868016),.UNSPECIFIED.);
#98=VERTEX_POINT('',#156);
#99=VERTEX_POINT('',#157);
#100=VERTEX_POINT('',#158);
#101=VERTEX_POINT('',#159);
#102=VERTEX_POINT('',#160);
#103=VERTEX_POINT('',#161);
#104=VERTEX_POINT('',#162);
#105=VERTEX_POINT('',#163);
#106=VERTEX_POINT('',#164);
#107=B_SPLINE_SURFACE_WITH_KNOTS('',1,1,((#152,#153),(#154,#155)),
 .UNSPECIFIED.,.F.,.F.,.F.,(2,2),(2,2),(-52.1362670430472,60.1362670430795),
(-137.316730868051,107.483269133195),.UNSPECIFIED.);
#108=SHAPE_DEFINITION_REPRESENTATION(#109,#126);
#109=PRODUCT_DEFINITION_SHAPE($,$,#111);
#110=PRODUCT_DEFINITION_CONTEXT('3D Mechanical Parts',#115,'design');
#111=PRODUCT_DEFINITION('A','First version',#112,#110);
#112=PRODUCT_DEFINITION_FORMATION_WITH_SPECIFIED_SOURCE('A',
'First version',#117,.MADE.);
#113=PRODUCT_RELATED_PRODUCT_CATEGORY('tool','tool',(#117));
#114=APPLICATION_PROTOCOL_DEFINITION('Draft International Standard',
'automotive_design',1999,#115);
#115=APPLICATION_CONTEXT(
'data for automotive mechanical design processes');
#116=PRODUCT_CONTEXT('3D Mechanical Parts',#115,'mechanical');
#117=PRODUCT('Document','Document','',(#116));
#118=(
LENGTH_UNIT()
NAMED_UNIT(*)
SI_UNIT(.MILLI.,.METRE.)
);
#119=(
NAMED_UNIT(*)
PLANE_ANGLE_UNIT()
SI_UNIT($,.RADIAN.)
);
#120=DIMENSIONAL_EXPONENTS(0.,0.,0.,0.,0.,0.,0.);
#121=PLANE_ANGLE_MEASURE_WITH_UNIT(PLANE_ANGLE_MEASURE(0.01745329252),#119);
#122=(
CONVERSION_BASED_UNIT('DEGREES',#121)
NAMED_UNIT(#120)
PLANE_ANGLE_UNIT()
);
#123=(
NAMED_UNIT(*)
SI_UNIT($,.STERADIAN.)
SOLID_ANGLE_UNIT()
);
#124=UNCERTAINTY_MEASURE_WITH_UNIT(LENGTH_MEASURE(0.001),#118,
'DISTANCE_ACCURACY_VALUE',
'Maximum model space distance between geometric entities at asserted c
onnectivities');
#125=(
GEOMETRIC_REPRESENTATION_CONTEXT(3)
GLOBAL_UNCERTAINTY_ASSIGNED_CONTEXT((#124))
GLOBAL_UNIT_ASSIGNED_CONTEXT((#123,#122,#118))
REPRESENTATION_CONTEXT('ID1','3D')
);
#126=SHAPE_REPRESENTATION('Document',(#127,#134),#125);
#127=AXIS2_PLACEMENT_3D($,#151,#135,#136);
#128=AXIS2_PLACEMENT_3D($,#177,#137,#138);
#129=AXIS2_PLACEMENT_3D($,#180,#139,#140);
#130=AXIS2_PLACEMENT_3D($,#183,#141,#142);
#131=AXIS2_PLACEMENT_3D($,#186,#143,#144);
#132=AXIS2_PLACEMENT_3D($,#189,#145,#146);
#133=AXIS2_PLACEMENT_3D($,#192,#147,#148);
#134=AXIS2_PLACEMENT_3D($,#237,#149,#150);
#135=DIRECTION('',(0.,0.,1.));
#136=DIRECTION('',(1.,0.,0.));
#137=DIRECTION('',(0.,0.,1.));
#138=DIRECTION('',(-1.,-3.55271367880049E-15,0.));
#139=DIRECTION('',(0.,0.,-1.));
#140=DIRECTION('',(-1.,4.44089209850059E-15,0.));
#141=DIRECTION('',(0.,0.,-1.));
#142=DIRECTION('',(0.181818181815172,0.98333216603619,0.));
#143=DIRECTION('',(0.,0.,1.));
#144=DIRECTION('',(0.181818181815175,-0.983332166036189,0.));
#145=DIRECTION('',(0.,0.,1.));
#146=DIRECTION('',(0.18181818181736,-0.983332166035785,0.));
#147=DIRECTION('',(0.,0.,-1.));
#148=DIRECTION('',(0.18181818181736,0.983332166035785,0.));
#149=DIRECTION('',(0.,0.,1.));
#150=DIRECTION('',(1.,0.,0.));
#151=CARTESIAN_POINT('',(0.,0.,0.));
#152=CARTESIAN_POINT('',(-56.1362670430517,16.4000000000122,0.));
#153=CARTESIAN_POINT('',(-56.1362670430517,-228.400000001235,0.));
#154=CARTESIAN_POINT('',(56.1362670430751,16.4000000000122,0.));
#155=CARTESIAN_POINT('',(56.1362670430751,-228.400000001235,0.));
#156=CARTESIAN_POINT('',(-6.00000000000443,-120.916730868039,0.));
#157=CARTESIAN_POINT('',(-5.99999999999997,14.,0.));
#158=CARTESIAN_POINT('',(6.,14.,0.));
#159=CARTESIAN_POINT('',(6.,-120.916730868016,0.));
#160=CARTESIAN_POINT('',(9.27272727273922,-124.850059532161,0.));
#161=CARTESIAN_POINT('',(-9.27272727273486,-124.850059532182,0.));
#162=CARTESIAN_POINT('',(-4.00000000000443,-120.916730868039,0.));
#163=CARTESIAN_POINT('',(4.,12.,0.));
#164=CARTESIAN_POINT('',(-4.00000000000003,12.,0.));
#165=CARTESIAN_POINT('',(-6.00000000000443,-120.916730868039,0.));
#166=CARTESIAN_POINT('',(-5.99999999999997,14.,0.));
#167=CARTESIAN_POINT('',(-2.,-8.5265128291212E-14));
#168=CARTESIAN_POINT('',(-1.99999999999553,-134.916730868039));
#169=CARTESIAN_POINT('',(-5.99999999999997,14.,0.));
#170=CARTESIAN_POINT('',(6.,14.,0.));
#171=CARTESIAN_POINT('',(-1.99999999999553,-134.916730868039));
#172=CARTESIAN_POINT('',(10.0000000000044,-134.916730868039));
#173=CARTESIAN_POINT('',(6.,14.,0.));
#174=CARTESIAN_POINT('',(6.,-120.916730868016,0.));
#175=CARTESIAN_POINT('',(10.0000000000044,-134.916730868039));
#176=CARTESIAN_POINT('',(10.0000000000044,-2.27800001084688E-11));
#177=CARTESIAN_POINT('',(10.,-120.916730868016,0.));
#178=CARTESIAN_POINT('',(6.,-120.916730868016,0.));
#179=CARTESIAN_POINT('',(9.27272727273922,-124.850059532161,0.));
#180=CARTESIAN_POINT('',(14.0000000000045,-2.27977636768628E-11,0.));
#181=CARTESIAN_POINT('',(10.0000000000044,-2.27800001084688E-11,0.));
#182=CARTESIAN_POINT('',(13.2727272727437,3.93332866412197,0.));
#183=CARTESIAN_POINT('',(5.88419984612431E-11,-175.000000000583,0.));
#184=CARTESIAN_POINT('',(9.27272727273922,-124.850059532161,0.));
#185=CARTESIAN_POINT('',(-9.27272727273488,-124.850059532182,0.));
#186=CARTESIAN_POINT('',(4.00000000006308,54.0832691325443,0.));
#187=CARTESIAN_POINT('',(13.2727272727437,3.93332866412197,0.));
#188=CARTESIAN_POINT('',(-5.27272727273045,3.93332866414286,0.));
#189=CARTESIAN_POINT('',(-10.0000000000043,-120.916730868039,0.));
#190=CARTESIAN_POINT('',(-9.27272727273486,-124.850059532182,0.));
#191=CARTESIAN_POINT('',(-6.00000000000446,-120.916730868039,0.));
#192=CARTESIAN_POINT('',(-5.99999999999984,-1.35003119794419E-13,0.));
#193=CARTESIAN_POINT('',(-5.27272727273043,3.93332866414285,0.));
#194=CARTESIAN_POINT('',(-2.,-8.49320613838245E-14,0.));
#195=CARTESIAN_POINT('',(-4.00000000000444,-120.916730868039,0.));
#196=CARTESIAN_POINT('',(-4.00000000000449,-125.90903263407,0.));
#197=CARTESIAN_POINT('',(-8.90909090910014,-126.816723864254,0.));
#198=CARTESIAN_POINT('',(-52.8772988295018,-134.94644838459,0.));
#199=CARTESIAN_POINT('',(-48.795391845716,-179.473224192905,0.));
#200=CARTESIAN_POINT('',(-44.7134848619302,-224.00000000122,0.));
#201=CARTESIAN_POINT('',(1.1373479935628E-10,-224.00000000117,0.));
#202=CARTESIAN_POINT('',(44.7134848621576,-224.000000001119,0.));
#203=CARTESIAN_POINT('',(48.7953918458432,-179.473224192795,0.));
#204=CARTESIAN_POINT('',(52.8772988295288,-134.946448384471,0.));
#205=CARTESIAN_POINT('',(8.90909090910887,-126.816723864234,0.));
#206=CARTESIAN_POINT('',(4.00000000000001,-125.909032634059,0.));
#207=CARTESIAN_POINT('',(4.,-120.916730868016,0.));
#208=CARTESIAN_POINT('',(4.,-54.4583654340082,0.));
#209=CARTESIAN_POINT('',(4.,12.,0.));
#210=CARTESIAN_POINT('',(0.,0.));
#211=CARTESIAN_POINT('',(-5.08384800317458E-14,4.9923017660311));
#212=CARTESIAN_POINT('',(-4.9090909090957,5.89999299621441));
#213=CARTESIAN_POINT('',(-48.8772988294974,14.0297175165506));
#214=CARTESIAN_POINT('',(-44.7953918457115,58.5564933248657));
#215=CARTESIAN_POINT('',(-40.7134848619257,103.083269133181));
#216=CARTESIAN_POINT('',(4.00000000011817,103.08326913313));
#217=CARTESIAN_POINT('',(48.7134848621621,103.08326913308));
#218=CARTESIAN_POINT('',(52.7953918458477,58.5564933247558));
#219=CARTESIAN_POINT('',(56.8772988295333,14.0297175164316));
#220=CARTESIAN_POINT('',(12.9090909091133,5.89999299619436));
#221=CARTESIAN_POINT('',(8.00000000000444,4.99230176601973));
#222=CARTESIAN_POINT('',(8.00000000000443,-2.27800001084688E-11));
#223=CARTESIAN_POINT('',(8.00000000000443,-66.458365434031));
#224=CARTESIAN_POINT('',(8.00000000000443,-132.916730868039));
#225=CARTESIAN_POINT('',(4.,12.,0.));
#226=CARTESIAN_POINT('',(-1.68753899743024E-14,12.,0.));
#227=CARTESIAN_POINT('',(-4.00000000000003,12.,0.));
#228=CARTESIAN_POINT('',(8.00000000000443,-132.916730868039));
#229=CARTESIAN_POINT('',(4.00000000000442,-132.916730868039));
#230=CARTESIAN_POINT('',(4.40003589119442E-12,-132.916730868039));
#231=CARTESIAN_POINT('',(-4.00000000000003,12.,0.));
#232=CARTESIAN_POINT('',(-4.00000000000223,-54.4583654340196,0.));
#233=CARTESIAN_POINT('',(-4.00000000000443,-120.916730868039,0.));
#234=CARTESIAN_POINT('',(4.40003589119442E-12,-132.916730868039));
#235=CARTESIAN_POINT('',(2.20001794559721E-12,-66.4583654340196));
#236=CARTESIAN_POINT('',(0.,0.));
#237=CARTESIAN_POINT('',(0.,0.,0.));
#238=(
GEOMETRIC_REPRESENTATION_CONTEXT(2)
PARAMETRIC_REPRESENTATION_CONTEXT()
REPRESENTATION_CONTEXT('pspace','')
);
ENDSEC;
END-ISO-10303-21;
